<svg xmlns="http://www.w3.org/2000/svg" width="64" height="56" viewBox="0 0 64 56">
  <g id="Group_1" data-name="Group 1" transform="translate(0 0.485)">
    <ellipse id="Ellipse_1" data-name="Ellipse 1" cx="32" cy="28" rx="32" ry="28" transform="translate(0 -0.485)" fill="#9af188"/>
    <path id="Icon_-_Arrow_Right_2" data-name="Icon - Arrow Right 2" d="M14.487,31.55q4.221-4.6,8.543-9.087c-6.661.326-13.313.869-19.982,1.007-4.07.081-4.057-7.017,0-7.1,6.891-.142,13.763-.715,20.646-1.038-3.417-2.96-7.019-5.684-10.307-8.823C9.972,3.255,14.906-2.256,18.3.987c5.362,5.131,11.546,9.134,16.433,14.876a4.16,4.16,0,0,1-1.067,6.272q-7.273,7.31-14.276,14.937a3.118,3.118,0,0,1-2.313,1.114A3.988,3.988,0,0,1,14.487,31.55Z" transform="translate(14 9.291)" fill="#5a730d"/>
  </g>
</svg>
